<?xml version="1.0" encoding="UTF-8"?>
<svg id="Layer_2" data-name="Layer 2" xmlns="http://www.w3.org/2000/svg" xmlns:xlink="http://www.w3.org/1999/xlink" viewBox="0 0 750 500">
  <defs>
    <style>
      .cls-1 {
        fill: #000000;
      }

      .cls-2 {
        clip-path: url(#clippath);
      }

      .cls-3 {
        fill: none;
      }
    </style>
    <clipPath id="clippath">
      <rect class="cls-3" width="750" height="500"/>
    </clipPath>
  </defs>
  <g id="OBJECTS">
    <g class="cls-2">
      <g>
        <path class="cls-1" d="M320,1179.79c258.15-523.39,156.57-727.2,54.53-930.62,125.28,189.98,250.17,380.44,55.47,930.62-36.67,0-73.33,0-110,0Z"/>
        <path class="cls-1" d="M430-679.79C171.85-156.4,273.43,47.41,375.47,250.82,250.19,60.84,125.31-129.62,320-679.79h110Z"/>
        <path class="cls-1" d="M-554.79,195C-31.4,453.15,172.41,351.57,375.82,249.53,185.84,374.81-4.62,499.69-554.79,305c0-36.67,0-73.33,0-110Z"/>
        <path class="cls-1" d="M1304.79,305C781.4,46.85,577.59,148.43,374.18,250.47,564.16,125.19,754.62,.31,1304.79,195c0,36.67,0,73.33,0,110Z"/>
        <path class="cls-1" d="M-203.68,875.53C-22.54,776.13,122.04,674.56,210.83,569.7c91.92-104.68,128.05-212.65,164.41-320.62-23.4,111.49-46.57,222.98-125.52,337.76-75.83,114.6-207.44,232.49-375.63,352.55-22.57-21.49-48.49-42.38-77.78-63.86Z"/>
        <path class="cls-1" d="M953.68-375.53c-181.15,99.41-325.72,200.97-414.52,305.83-91.92,104.68-128.06,212.65-164.41,320.62,23.4-111.5,46.57-222.98,125.52-337.76,75.83-114.6,207.44-232.49,375.63-352.55,22.56,21.49,48.49,42.37,77.78,63.86Z"/>
        <path class="cls-1" d="M-250.53-328.68C-151.13-147.54-49.56-2.96,55.3,85.83c104.68,91.92,212.65,128.06,320.62,164.41-111.5-23.39-222.98-46.57-337.76-125.52C-76.44,48.89-194.34-82.72-314.39-250.9c21.49-22.56,42.37-48.49,63.86-77.78Z"/>
        <path class="cls-1" d="M1000.53,828.68c-99.41-181.15-200.97-325.72-305.83-414.52-104.68-91.92-212.65-128.06-320.62-164.41,111.5,23.39,222.98,46.57,337.76,125.52,114.6,75.83,232.49,207.44,352.55,375.63-21.49,22.56-42.38,48.49-63.86,77.78Z"/>
        <path class="cls-1" d="M699.54,1089.81c3.27-258.53-32.03-437.59-92.95-563.83-60.39-127.34-146.41-201.86-232.34-276.55,94.1,64.14,188.27,128.1,263.58,246.48,75.95,116.54,133.03,287.5,167.75,522.97-33.74,22.42-68.95,46.27-106.04,70.94Z"/>
        <path class="cls-1" d="M50.46-589.81C47.2-331.28,82.49-152.22,143.41-25.98c60.39,127.34,146.41,201.86,232.34,276.55C281.65,186.44,187.48,122.48,112.17,4.1,36.23-112.44-20.86-283.4-55.58-518.87c33.74-22.42,68.95-46.27,106.04-70.94Z"/>
        <path class="cls-1" d="M-464.81,574.54c258.53,3.26,437.59-32.03,563.84-92.95,127.34-60.39,201.86-146.41,276.55-232.34-64.14,94.1-128.1,188.27-246.48,263.58-116.53,75.95-287.5,133.03-522.97,167.75-22.42-33.74-46.27-68.95-70.94-106.04Z"/>
        <path class="cls-1" d="M1214.81-74.54c-258.53-3.27-437.59,32.03-563.83,92.95-127.34,60.39-201.86,146.41-276.55,232.34C438.56,156.65,502.52,62.48,620.9-12.83c116.54-75.95,287.5-133.03,522.97-167.75,22.42,33.74,46.27,68.95,70.94,106.04Z"/>
        <path class="cls-1" d="M37.47,1064.02c163.46-173,262.42-323.63,306.94-455.4,46.38-132.41,38.33-245.95,30.46-359.57,21.27,111.86,42.7,223.64,11.33,361.04-30.28,136.87-113.38,299.37-275.95,500.43-23.23-17.25-47.3-32.61-72.78-46.51Z"/>
        <path class="cls-1" d="M712.53-564.02C549.07-391.03,450.11-240.39,405.58-108.62c-46.38,132.41-38.33,245.95-30.46,359.57-21.27-111.86-42.7-223.64-11.33-361.04,30.28-136.87,113.38-299.37,275.95-500.43,23.23,17.25,47.29,32.62,72.78,46.51Z"/>
        <path class="cls-1" d="M-439.02-87.53C-266.03,75.93-115.39,174.89,16.37,219.41c132.41,46.38,245.95,38.33,359.57,30.46-111.86,21.27-223.63,42.7-361.04,11.33C-121.97,230.92-284.47,147.82-485.53-14.75c17.25-23.23,32.62-47.3,46.51-72.78Z"/>
        <path class="cls-1" d="M1189.02,587.53c-173-163.46-323.63-262.42-455.4-306.94-132.41-46.38-245.96-38.33-359.57-30.46,111.86-21.27,223.63-42.7,361.04-11.33,136.87,30.28,299.38,113.38,500.43,275.95-17.25,23.23-32.61,47.3-46.51,72.78Z"/>
        <path class="cls-1" d="M506.81,1166.9c144.76-555.35,8.03-738.94-132.44-917.61,79.86,81.14,159.81,162.13,209.74,294.35,50.32,131.56,70.62,314.36,40.02,584.01-38.18,13.06-77.29,26.25-117.32,39.25Z"/>
        <path class="cls-1" d="M243.19-666.9C98.43-111.55,235.16,72.04,375.63,250.71,295.77,169.57,215.82,88.58,165.89-43.63c-50.32-131.56-70.62-314.36-40.02-584.01,38.18-13.06,77.29-26.25,117.32-39.25Z"/>
        <path class="cls-1" d="M-541.9,381.81C13.45,526.57,197.04,389.84,375.71,249.37c-81.14,79.86-162.13,159.81-294.35,209.74-131.56,50.32-314.36,70.62-584.01,40.02-13.06-38.18-26.25-77.29-39.25-117.32Z"/>
        <path class="cls-1" d="M1291.9,118.19C736.55-26.57,552.96,110.16,374.29,250.63c81.14-79.86,162.13-159.81,294.35-209.74C800.2-9.43,982.99-29.73,1252.64,.86c13.06,38.18,26.25,77.29,39.25,117.32Z"/>
        <path class="cls-1" d="M-77.69,977.4c164.06-133.63,286.76-261.55,353.83-381.78,69.99-120.63,84.35-233.58,98.92-346.56-1.11,113.89-2.01,227.74-58,355.97-53.65,127.62-162.39,269.62-325.26,425.75-20.58-19.28-43.59-36.76-69.49-53.37Z"/>
        <path class="cls-1" d="M827.69-477.4c-164.06,133.63-286.76,261.55-353.83,381.78-69.98,120.63-84.34,233.58-98.92,346.56,1.11-113.89,2.01-227.74,58-355.97,53.66-127.62,162.4-269.62,325.26-425.75,20.58,19.28,43.59,36.76,69.49,53.37Z"/>
        <path class="cls-1" d="M-352.4-202.69C-218.76-38.63-90.85,84.07,29.39,151.15c120.63,69.99,233.58,84.34,346.56,98.92-113.89-1.11-227.74-2.01-355.97-58C-107.64,138.4-249.64,29.66-405.77-133.2c19.28-20.58,36.76-43.59,53.37-69.49Z"/>
        <path class="cls-1" d="M1102.4,702.69c-133.63-164.06-261.55-286.76-381.78-353.83-120.63-69.98-233.58-84.34-346.56-98.92,113.9,1.11,227.74,2.01,355.97,58,127.62,53.66,269.62,162.4,425.75,325.26-19.28,20.58-36.76,43.59-53.37,69.49Z"/>
        <path class="cls-1" d="M868.72,966.01c-56.59-218.39-127.3-382.66-212.4-491.84-84.49-111.52-183.36-167.95-282.18-224.59,104.79,44.67,209.62,89.13,306.75,189.22,97.54,97.17,187.4,249.98,271.53,444.13-26.73,24.96-54.32,52.81-83.72,83.09Z"/>
        <path class="cls-1" d="M-118.72-466.01C-62.13-247.62,8.58-83.35,93.68,25.83c84.49,111.52,183.36,167.95,282.18,224.59-104.79-44.67-209.62-89.13-306.76-189.22C-28.44-35.97-118.3-188.77-202.44-382.93c26.73-24.96,54.32-52.81,83.72-83.08Z"/>
        <path class="cls-1" d="M-341.01,743.72c218.39-56.59,382.66-127.3,491.84-212.4,111.52-84.49,167.95-183.36,224.59-282.18-44.67,104.79-89.13,209.62-189.22,306.76-97.17,97.54-249.98,187.4-444.13,271.53-24.96-26.73-52.81-54.32-83.08-83.72Z"/>
        <path class="cls-1" d="M1091.01-243.72c-218.39,56.59-382.66,127.3-491.84,212.4-111.52,84.49-167.95,183.36-224.59,282.18,44.67-104.79,89.13-209.62,189.22-306.75,97.17-97.54,249.98-187.4,444.13-271.53,24.95,26.73,52.81,54.32,83.09,83.72Z"/>
        <path class="cls-1" d="M163.22,1137.4c158.51-220.27,230.15-389.65,250.57-529.01,21.07-139.74-9.09-249.47-39.09-359.29,86.73,210.08,168.55,423.9-121.39,919.2-30.11-11.23-60.04-21.53-90.09-30.9Z"/>
        <path class="cls-1" d="M586.78-637.4C428.28-417.13,356.63-247.75,336.21-108.39c-21.07,139.74,9.09,249.47,39.09,359.29-86.73-210.08-168.55-423.9,121.39-919.2,30.12,11.23,60.04,21.53,90.09,30.9Z"/>
        <path class="cls-1" d="M-512.4,38.22C-292.13,196.72-122.75,268.37,16.61,288.79c139.74,21.07,249.47-9.09,359.29-39.09-210.08,86.73-423.9,168.55-919.2-121.39,11.23-30.12,21.53-60.03,30.9-90.09Z"/>
        <path class="cls-1" d="M1262.4,461.78c-220.27-158.51-389.65-230.15-529.01-250.57-139.74-21.07-249.47,9.09-359.29,39.09,210.08-86.73,423.9-168.55,919.2,121.39-11.23,30.11-21.53,60.04-30.9,90.09Z"/>
      </g>
    </g>
  </g>
</svg>